<?xml version="1.0" standalone="no"?>
<!DOCTYPE svg PUBLIC "-//W3C//DTD SVG 20010904//EN"
 "http://www.w3.org/TR/2001/REC-SVG-20010904/DTD/svg10.dtd">
<svg version="1.0" xmlns="http://www.w3.org/2000/svg"
 width="343.000000pt" height="449.000000pt" viewBox="0 0 343.000000 449.000000"
 preserveAspectRatio="xMidYMid meet">

<g transform="translate(0.000000,449.000000) scale(0.100000,-0.100000)"
fill="#000000" stroke="none">
<path d="M0 2938 c0 -1198 3 -1549 12 -1540 17 17 24 15 24 -8 0 -11 -8 -23
-18 -26 -10 -3 -18 -14 -18 -24 0 -17 3 -18 25 -8 19 9 25 19 25 44 0 18 4 44
10 58 12 32 4 33 -27 4 -13 -12 -23 -17 -23 -11 0 6 14 23 31 38 41 34 54 22
39 -35 -6 -23 -8 -56 -5 -73 22 -114 102 -438 131 -530 13 -43 24 -90 24 -105
-1 -25 -2 -24 -18 12 l-18 40 -21 -28 c-12 -14 -24 -44 -28 -66 -4 -26 -11
-37 -20 -34 -8 3 -17 -6 -23 -23 -6 -15 -11 -22 -11 -15 -1 19 66 157 84 172
10 8 13 21 9 39 -11 44 -20 44 -50 4 -16 -21 -34 -42 -40 -48 -7 -5 -19 -23
-28 -40 -10 -21 -15 -25 -16 -12 0 21 58 114 89 141 20 18 29 65 14 80 -4 3
-22 -8 -40 -26 -21 -20 -33 -27 -33 -17 -1 7 -10 -4 -22 -26 -12 -22 -23 -34
-25 -28 -3 7 6 31 18 54 13 22 25 36 27 30 2 -5 17 3 34 19 26 25 29 33 23 62
l-7 32 -24 -27 c-13 -15 -26 -27 -29 -27 -12 0 -4 20 20 48 26 31 32 57 16 67
-5 3 -17 -2 -25 -11 -14 -13 -16 -13 -16 0 0 8 7 21 15 30 16 16 21 56 6 56
-5 0 -27 -24 -50 -53 -38 -49 -41 -59 -41 -113 l1 -59 32 59 c18 33 33 53 35
44 2 -8 -12 -39 -30 -68 -30 -48 -33 -62 -36 -139 -2 -80 -2 -84 12 -61 21 34
21 2 1 -47 -9 -21 -15 -65 -15 -112 l1 -76 29 60 c39 82 39 38 0 -61 l-30 -76
2 -186 3 -187 23 155 c12 85 22 162 22 171 0 9 12 43 27 75 20 43 29 53 31 38
2 -11 -9 -43 -23 -71 -16 -34 -25 -67 -25 -99 0 -74 -22 -254 -32 -254 -4 0
-8 -12 -8 -28 0 -15 -4 -42 -9 -60 l-10 -32 38 0 37 0 13 88 c8 55 11 115 6
159 -6 65 -4 76 25 147 18 42 36 76 41 76 13 0 11 -11 -10 -51 -44 -82 -53
-127 -40 -205 10 -57 10 -83 0 -121 -26 -104 -27 -95 10 -91 32 3 34 6 40 48
3 25 7 38 9 30 1 -8 6 5 10 30 5 25 25 81 45 124 l36 79 19 -30 c10 -17 48
-62 84 -101 39 -41 66 -78 66 -91 0 -40 28 -91 50 -91 19 0 19 3 -10 61 -17
33 -33 74 -35 90 -4 33 -28 70 -101 154 -57 66 -78 109 -94 199 -18 106 -9
114 15 13 29 -116 41 -141 100 -207 24 -27 49 -59 55 -70 18 -34 28 -22 19 25
-11 58 -28 89 -79 148 -39 44 -43 55 -51 120 -4 40 -19 128 -33 197 -14 69
-26 144 -26 167 0 23 -5 54 -11 70 -6 15 -31 107 -56 203 -40 155 -44 184 -41
258 6 121 24 125 24 5 -1 -82 6 -124 39 -258 l40 -160 13 70 c10 55 11 81 2
120 -34 146 -57 278 -53 299 4 17 0 25 -12 28 -17 3 443 238 467 238 8 0 22 6
33 14 11 7 49 25 85 39 36 14 90 37 120 50 30 13 65 27 78 31 35 12 25 -9 -12
-22 -18 -7 -40 -20 -48 -30 -13 -15 -76 -259 -97 -374 -8 -44 -1 -62 14 -38 4
6 10 8 14 6 4 -3 8 1 8 8 0 19 25 78 30 72 3 -2 -1 -14 -7 -26 -6 -12 -9 -24
-6 -27 8 -8 54 95 61 136 3 19 33 122 65 229 33 107 60 200 60 206 0 6 10 22
21 36 11 14 18 20 15 14 -3 -6 -16 -51 -30 -100 -13 -49 -38 -136 -56 -194
-17 -58 -37 -134 -45 -170 -8 -36 -29 -93 -45 -127 -29 -59 -31 -69 -35 -210
-9 -320 -21 -1191 -17 -1241 4 -49 5 -52 32 -52 l27 0 1 408 c1 417 18 896 33
967 5 24 7 -58 4 -210 -16 -838 -17 -979 -11 -1067 l8 -98 30 0 30 0 -7 198
c-6 181 7 841 24 1142 7 124 7 124 15 60 4 -36 3 -193 -3 -349 -12 -309 -15
-930 -5 -1005 6 -42 9 -46 34 -46 l27 0 -1 358 c-1 458 14 1143 25 1136 6 -3
6 -323 2 -750 l-6 -744 25 0 26 0 6 172 c3 95 8 389 11 653 3 264 9 536 13
605 l7 125 6 -125 c5 -100 2 -524 -11 -1402 0 -24 4 -28 28 -28 l29 0 6 152
c4 83 7 260 7 393 0 439 14 1042 22 925 7 -117 0 -1448 -8 -1462 -3 -4 10 -8
29 -8 l34 0 7 188 c7 179 10 664 8 1142 -1 171 1 218 10 195 10 -30 13 -919 3
-1338 l-4 -187 28 0 29 0 6 313 c3 171 9 499 12 727 3 228 6 416 8 417 11 11
23 -334 16 -447 -5 -74 -9 -332 -9 -572 l-1 -438 29 0 29 0 7 537 c4 296 7
602 7 681 0 79 4 142 9 142 5 0 9 -21 10 -47 0 -27 4 -71 8 -100 4 -29 4 -84
0 -124 -5 -39 -11 -300 -14 -580 l-5 -509 38 0 39 0 7 383 c8 460 19 639 41
687 15 34 16 34 10 5 -10 -48 -23 -505 -24 -802 l-1 -273 30 0 30 0 0 159 c0
88 4 162 9 165 17 11 20 -24 16 -174 l-4 -150 29 0 c23 0 29 5 33 27 3 16 6
262 7 548 1 286 6 540 10 565 10 60 11 -25 10 -647 l-1 -493 29 0 29 0 7 576
c4 317 12 586 16 598 5 12 9 -237 9 -576 l1 -598 28 0 28 0 2 548 c1 301 5
576 9 612 16 158 22 -32 16 -582 l-5 -578 31 0 31 0 1 258 c0 326 16 1064 24
1117 3 22 2 35 -2 29 -5 -8 -15 1 -26 25 l-19 36 25 -23 c23 -22 26 -22 30 -5
3 10 4 -31 1 -92 -2 -60 -6 -388 -10 -727 l-6 -618 30 0 29 0 7 533 c7 535 9
595 27 852 12 164 22 196 15 45 -6 -109 -21 -966 -20 -1125 0 -50 1 -138 2
-197 l2 -108 28 0 27 0 2 228 c2 365 23 1153 32 1202 10 56 4 -717 -9 -1040
-10 -274 -4 -383 23 -388 15 -3 17 5 17 65 0 37 5 108 10 158 6 50 15 315 21
590 5 275 14 532 19 570 11 93 3 -968 -9 -1100 -5 -55 -12 -142 -16 -192 l-8
-93 30 0 c30 0 30 1 37 68 23 243 28 360 35 814 4 279 10 511 14 514 9 9 9 16
8 -501 -1 -401 -9 -601 -29 -818 l-8 -77 28 0 c16 0 31 6 33 13 17 46 36 428
42 852 4 331 10 477 16 450 14 -65 0 -1027 -18 -1175 -8 -69 -15 -128 -15
-132 0 -5 13 -8 30 -8 25 0 30 4 35 33 18 110 26 283 31 677 3 245 7 460 10
478 3 19 11 32 19 32 8 0 15 5 15 10 0 6 -7 10 -15 10 -8 0 -15 7 -15 16 0 10
6 14 15 10 8 -3 15 -1 15 4 0 6 -6 10 -12 10 -9 0 -13 14 -12 42 1 24 -3 52
-7 63 -9 18 -9 18 -5 -2 3 -15 -1 -23 -10 -23 -9 0 -14 12 -14 35 0 29 -5 37
-25 45 -14 5 -25 12 -25 15 0 4 5 3 12 -1 8 -5 9 0 5 17 -4 13 -7 30 -7 37 0
6 -9 12 -20 12 -12 0 -17 5 -14 13 9 23 -14 67 -31 61 -13 -5 -19 5 -17 27 1
4 -9 47 -22 95 -13 49 -31 130 -40 179 -21 115 -50 222 -82 308 -27 69 -44 79
-44 25 0 -29 -19 -62 -66 -113 -29 -31 -84 -68 -92 -61 -3 4 -1 10 5 14 6 4
12 30 14 59 l4 52 -25 -16 c-53 -35 -69 -48 -70 -60 0 -6 -9 -15 -20 -18 -11
-3 -25 -15 -30 -26 -6 -10 -17 -19 -25 -19 -7 0 -17 -4 -20 -10 -3 -5 0 -7 8
-4 8 3 18 1 22 -5 3 -6 2 -11 -3 -11 -13 0 -62 -72 -56 -82 3 -4 15 -6 28 -2
14 3 27 -1 35 -10 8 -9 29 -16 49 -16 34 0 35 0 17 -20 -15 -17 -16 -20 -3
-20 20 0 12 -45 -13 -82 -34 -47 -18 -108 19 -75 9 8 27 18 39 21 30 9 48 -24
35 -63 l-10 -29 29 15 c16 8 31 19 35 24 3 6 17 14 30 19 21 8 24 16 25 62 0
53 20 188 37 263 9 37 10 33 11 -40 1 -57 9 -106 30 -170 16 -49 27 -93 24
-97 -11 -20 -22 -3 -34 53 -15 67 -27 58 -28 -21 -1 -36 -8 -54 -37 -90 -20
-25 -49 -53 -65 -63 -16 -11 -29 -23 -29 -28 0 -5 -8 -9 -19 -9 -10 0 -24 -7
-31 -15 -10 -12 -10 -15 4 -15 23 0 20 -18 -4 -24 -11 -3 -29 -9 -40 -12 -14
-4 -20 -1 -20 11 0 10 7 15 18 13 10 -2 16 2 14 10 -1 7 3 23 9 35 7 12 -15
-2 -47 -32 -32 -30 -63 -58 -69 -63 -5 -5 3 -4 18 1 35 13 50 14 42 2 -3 -5
-18 -12 -34 -16 -30 -6 -111 -69 -111 -86 0 -5 15 -2 33 7 41 22 147 54 147
46 0 -4 -40 -22 -88 -40 -49 -18 -103 -46 -121 -63 -36 -32 -41 -34 -41 -16
-1 19 -95 158 -103 151 -4 -4 -7 -2 -7 5 0 7 -22 36 -49 64 -26 29 -55 65 -63
81 -15 28 -18 29 -79 28 -35 -2 -77 2 -94 7 -26 8 -20 10 40 12 95 3 94 3 97
14 2 6 -7 11 -19 13 -13 2 -23 8 -23 13 0 5 -15 9 -32 9 -18 0 -40 5 -48 10
-11 7 -6 10 20 10 34 0 34 0 13 15 -16 11 -34 14 -62 9 -44 -7 -58 9 -18 20
19 6 15 10 -28 25 l-50 18 -4 64 -3 64 -17 -59 c-9 -33 -22 -61 -30 -64 -15
-5 -16 -12 29 138 l33 105 14 -40 c8 -22 23 -80 33 -129 11 -48 20 -89 22 -91
2 -1 23 -11 48 -21 48 -20 111 -21 105 -1 -2 7 -6 40 -10 75 -6 59 -5 62 15
62 12 0 40 -11 63 -24 23 -13 52 -27 65 -31 22 -6 23 -5 16 30 l-7 37 45 -7
c36 -6 46 -4 51 9 4 9 3 16 -2 16 -8 0 -141 125 -161 153 -12 17 -11 18 16 12
l29 -6 -35 30 c-19 17 -40 31 -47 31 -7 0 -13 4 -13 8 0 14 -73 37 -118 37
-26 1 -47 7 -53 15 -5 8 -9 11 -9 5 0 -5 -7 1 -15 15 -8 14 -15 21 -15 15 0
-5 -7 1 -15 15 -8 14 -14 46 -15 72 0 44 -9 72 -58 178 -11 25 -26 65 -32 90
-22 87 -20 83 -39 66 -34 -31 -58 -20 -110 52 -60 81 -101 177 -101 235 1 84
34 167 66 167 38 0 95 -26 99 -45 7 -36 15 -140 9 -127 -10 21 -32 13 -39 -15
-16 -60 -17 -93 -3 -93 26 0 53 90 54 180 0 47 4 157 8 245 5 88 8 180 8 205
0 25 2 37 5 27 6 -24 27 -16 31 11 2 12 6 22 10 22 4 0 7 37 7 83 1 170 92
307 205 307 16 0 31 4 34 9 4 5 20 6 39 1 59 -14 265 -3 427 24 19 4 78 7 131
7 107 1 137 -8 203 -63 40 -33 96 -138 96 -180 0 -36 42 -153 61 -168 3 -3 13
-19 22 -36 13 -26 15 -72 14 -310 -2 -224 0 -283 11 -301 17 -27 34 -31 25 -6
-4 11 -3 14 6 9 7 -5 3 11 -9 33 -16 32 -20 56 -18 103 l3 60 44 18 c25 9 53
15 62 13 66 -18 42 -266 -36 -385 -14 -21 -25 -46 -25 -57 0 -34 -28 -53 -70
-46 l-37 6 -23 -63 c-12 -35 -42 -101 -66 -146 -24 -46 -44 -95 -44 -109 0
-13 11 -43 24 -66 13 -23 29 -60 36 -82 7 -22 23 -54 35 -70 24 -32 32 -57 91
-275 43 -160 62 -221 63 -200 1 14 -67 274 -84 325 -4 11 2 5 14 -13 12 -18
21 -36 21 -41 0 -5 10 -16 23 -25 14 -10 16 -14 5 -10 -23 8 -23 4 6 -96 14
-47 27 -101 31 -120 4 -20 15 -60 25 -90 16 -46 19 -50 19 -25 1 42 -26 283
-33 294 -4 5 0 12 6 14 7 3 3 6 -10 6 -13 1 -21 5 -17 10 3 5 -7 19 -21 30
-43 34 -16 24 35 -12 50 -36 162 -82 183 -75 7 3 24 -3 37 -13 13 -11 32 -19
41 -19 21 0 161 -69 143 -70 -18 0 -16 -36 6 -148 11 -54 25 -151 31 -217 6
-66 15 -136 20 -155 39 -154 40 -168 30 -450 -6 -176 -17 -324 -29 -410 -11
-74 -25 -171 -30 -215 -5 -44 -13 -88 -16 -97 -6 -15 -2 -18 24 -18 17 0 31 2
31 4 0 11 41 278 55 361 23 133 36 589 18 632 -19 46 -39 148 -57 288 -17 137
-35 312 -38 368 -1 22 -9 42 -18 47 -8 6 -10 10 -3 10 6 0 15 -5 18 -10 3 -5
15 -10 25 -10 10 0 22 -5 26 -12 5 -8 2 -9 -11 -5 -16 7 -17 1 -11 -90 17
-234 56 -496 85 -574 17 -43 19 -74 16 -281 -3 -209 -7 -256 -39 -458 -20
-124 -38 -235 -41 -247 -4 -19 -1 -23 18 -23 22 0 24 7 40 108 10 59 18 123
18 142 1 19 3 27 6 18 8 -33 22 -18 68 75 25 50 45 86 45 79 0 -23 -60 -155
-85 -189 -24 -31 -35 -91 -15 -78 16 10 12 -17 -5 -35 -9 -10 -18 -40 -22 -69
-5 -42 -3 -51 10 -51 12 0 17 13 20 58 l3 57 2 -57 2 -58 36 0 36 0 -7 88 c-5
68 -2 116 13 207 11 66 23 145 27 175 l7 55 -36 -59 c-20 -32 -49 -76 -66 -99
-29 -39 -30 -40 -30 -15 0 15 4 28 8 30 14 5 80 107 104 159 13 27 26 49 30
49 4 0 7 -55 7 -122 -1 -77 5 -157 15 -213 11 -59 14 -98 8 -114 -7 -18 -11
-1 -22 80 -8 57 -13 115 -12 129 1 14 -7 -6 -18 -45 -20 -72 -25 -160 -14
-252 6 -48 9 -53 32 -53 24 0 24 2 18 51 -5 34 -4 49 4 44 5 -3 10 -16 10 -28
0 -49 11 -67 41 -67 28 0 29 2 24 38 -27 197 -29 226 -16 218 4 -3 11 -36 15
-73 4 -37 11 -94 18 -125 10 -55 12 -58 40 -58 l29 0 -7 53 c-4 28 -17 122
-29 207 -12 85 -19 161 -15 168 3 7 17 -49 29 -125 13 -76 24 -145 26 -153 1
-8 3 71 4 175 1 231 -23 385 -90 574 -10 30 -18 76 -18 101 l1 45 8 -45 c5
-25 22 -85 40 -135 17 -49 37 -119 45 -155 l14 -65 -2 130 c-3 136 -5 144 -73
293 -9 19 -12 37 -8 40 3 4 9 3 11 -3 2 -5 19 -41 38 -80 l33 -70 1 65 c1 52
-4 74 -24 109 -28 48 -26 64 4 37 19 -17 19 -15 20 123 1 78 -3 141 -8 141 -5
0 -9 -20 -9 -44 -1 -23 -20 -97 -43 -162 -41 -119 -89 -293 -89 -326 0 -10 5
-18 10 -18 6 0 10 -13 10 -30 0 -16 14 -80 31 -142 48 -172 56 -211 50 -237
-6 -21 -46 126 -83 304 -5 28 -12 61 -15 75 -5 24 -6 23 -23 -15 -10 -22 -19
-58 -19 -81 -1 -64 -24 -123 -79 -208 l-52 -79 -2 44 c-2 73 2 99 24 135 15
26 19 44 14 74 -3 21 -1 73 5 115 10 71 8 84 -20 193 -39 153 -57 266 -70 438
-13 170 -14 197 -2 190 5 -3 12 -59 15 -123 13 -234 33 -357 87 -533 18 -58
19 -81 13 -204 -6 -123 -10 -144 -30 -174 -13 -19 -24 -49 -24 -66 l0 -31 20
25 c11 14 32 50 48 80 23 47 28 71 31 160 3 67 7 94 11 75 6 -29 7 -27 22 25
9 30 23 87 32 125 8 39 36 131 61 205 50 150 56 207 25 235 -20 18 -20 17 -20
-9 0 -15 -15 -78 -34 -139 -19 -62 -49 -161 -67 -220 -19 -62 -36 -102 -40
-95 -7 13 32 159 91 346 34 106 37 139 13 162 -17 15 -21 6 -73 -157 -31 -94
-58 -175 -61 -178 -15 -14 -49 228 -49 348 0 38 -5 77 -10 88 -11 19 -4 24 16
11 7 -4 15 -61 19 -142 6 -91 11 -125 16 -105 40 164 39 159 24 182 -19 28
-19 33 2 33 9 0 13 -3 10 -7 -4 -3 0 -15 10 -25 15 -17 14 -25 -14 -121 -41
-136 -44 -150 -36 -188 6 -29 12 -16 55 120 l49 153 -27 29 c-15 16 -23 29
-17 29 6 0 16 -7 23 -15 6 -8 21 -17 32 -21 11 -3 49 -26 84 -51 l64 -45 0
1526 0 1526 -1715 0 -1715 0 0 -1552z m1205 -681 c-14 -34 -33 -116 -49 -218
-28 -173 -54 -327 -62 -368 -4 -18 -8 -21 -14 -12 -10 18 -30 -17 -30 -53 0
-14 -4 -28 -10 -31 -5 -3 -10 1 -10 10 0 27 -16 9 -30 -34 -7 -23 -17 -41 -22
-41 -5 0 -6 6 -2 13 4 6 -2 3 -13 -9 -11 -11 -24 -30 -27 -42 -4 -12 -12 -22
-17 -22 -15 0 -10 30 10 59 21 29 83 227 130 416 47 186 65 243 85 266 9 11
27 37 38 57 20 38 38 62 44 62 1 0 -8 -24 -21 -53z m7 -199 c-17 -62 -38 -156
-48 -208 -9 -52 -21 -99 -25 -104 -31 -35 30 274 79 397 27 70 25 28 -6 -85z
m1067 10 c55 -140 121 -382 107 -396 -13 -12 -24 16 -40 98 -9 47 -34 140 -55
208 -21 67 -36 122 -32 122 4 0 12 -15 20 -32z m-279 -148 c0 -5 -2 -10 -4
-10 -3 0 -8 5 -11 10 -3 6 -1 10 4 10 6 0 11 -4 11 -10z m-1034 -88 c-20 -40
-58 -210 -50 -224 4 -7 2 -8 -4 -4 -8 5 -12 -1 -12 -18 0 -14 -4 -28 -10 -31
-5 -3 -10 3 -10 14 0 38 60 252 77 276 24 31 28 24 9 -13z m556 -267 c11 -14
32 -49 47 -77 129 -244 154 -288 162 -288 6 0 8 4 4 9 -14 23 102 97 212 135
37 13 77 27 88 31 11 4 4 -3 -15 -15 -19 -12 -55 -28 -80 -36 -41 -12 -125
-59 -175 -98 -19 -15 -18 -15 10 -5 30 10 175 78 227 105 37 20 45 17 20 -6
-12 -11 -24 -20 -28 -20 -4 0 -38 -15 -74 -34 -37 -19 -90 -44 -118 -54 -28
-11 -71 -35 -94 -53 -40 -32 -41 -32 -23 -7 11 15 25 28 30 28 6 0 6 3 -1 8
-23 16 -164 281 -164 309 0 6 -13 27 -30 48 -16 21 -30 39 -30 41 0 11 14 1
32 -21z m-38 -77 c35 -69 35 -71 9 -41 -30 34 -82 143 -59 124 7 -6 29 -44 50
-83z m1016 2 c0 -5 -2 -10 -4 -10 -3 0 -8 5 -11 10 -3 6 -1 10 4 10 6 0 11 -4
11 -10z m40 -81 c0 -6 -4 -7 -10 -4 -5 3 -10 11 -10 16 0 6 5 7 10 4 6 -3 10
-11 10 -16z m-840 -48 c12 -33 20 -66 17 -73 -3 -10 -47 109 -47 128 0 15 11
-5 30 -55z m880 -32 c0 -5 -4 -9 -10 -9 -5 0 -10 7 -10 16 0 8 5 12 10 9 6 -3
10 -10 10 -16z m-935 -206 c-11 -120 -23 -112 -21 14 1 114 2 120 14 85 9 -24
11 -58 7 -99z m95 -332 c0 -154 -3 -286 -6 -295 -15 -39 -24 -8 -24 82 0 190
13 492 22 492 4 0 8 -126 8 -279z m1567 147 c-3 -7 -5 -2 -5 12 0 14 2 19 5
13 2 -7 2 -19 0 -25z m-22 -182 c9 -24 15 -54 13 -67 -3 -23 -16 4 -45 94 -12
38 16 14 32 -27z m-3075 -78 c-1 -18 -28 -53 -36 -45 -3 3 2 17 13 31 21 29
23 31 23 14z m10 -150 c0 -10 -4 -18 -10 -18 -5 0 -10 15 -10 33 0 24 3 28 10
17 5 -8 10 -23 10 -32z m3092 -85 c13 -65 22 -129 19 -143 -3 -16 -12 13 -27
85 -12 61 -25 125 -29 143 -5 19 -4 32 2 32 6 0 21 -53 35 -117z m-3152 86 c0
-11 -4 -18 -10 -14 -5 3 -7 12 -3 20 7 21 13 19 13 -6z m62 -84 c-2 -14 -6
-25 -8 -25 -2 0 -4 11 -4 25 0 14 4 25 9 25 4 0 6 -11 3 -25z m1518 -15 c0 -5
-6 -7 -14 -4 -8 3 -21 -5 -30 -18 -18 -25 -22 -17 -6 13 11 19 50 27 50 9z
m18 -47 c-13 -12 -14 -10 -10 18 4 27 6 29 14 14 7 -12 6 -21 -4 -32z m-1569
-75 c-18 -34 -36 -79 -40 -98 l-7 -35 -1 31 c-1 43 71 212 77 180 2 -8 -11
-43 -29 -78z"/>
<path d="M1101 2024 c0 -11 3 -14 6 -6 3 7 2 16 -1 19 -3 4 -6 -2 -5 -13z"/>
<path d="M1085 1958 c-4 -24 -20 -90 -35 -148 -16 -57 -26 -108 -24 -112 3 -5
0 -8 -5 -8 -6 0 -11 -10 -11 -22 1 -21 2 -21 11 -5 23 39 89 337 75 337 -2 0
-7 -19 -11 -42z"/>
<path d="M1071 1764 c0 -11 3 -14 6 -6 3 7 2 16 -1 19 -3 4 -6 -2 -5 -13z"/>
<path d="M1061 1724 c0 -11 3 -14 6 -6 3 7 2 16 -1 19 -3 4 -6 -2 -5 -13z"/>
<path d="M997 1621 c-4 -17 -3 -21 5 -13 5 5 8 16 6 23 -3 8 -7 3 -11 -10z"/>
<path d="M2140 3433 c-52 -22 -122 -43 -147 -43 -12 0 -38 -8 -58 -17 -29 -14
-35 -22 -33 -43 3 -23 7 -25 46 -22 23 1 42 0 42 -2 0 -2 -18 -23 -40 -45 -26
-26 -40 -49 -40 -66 0 -14 4 -24 8 -21 4 3 7 -8 6 -24 -1 -20 2 -27 11 -24 7
3 16 1 20 -5 3 -6 15 -11 26 -11 10 0 19 -5 19 -11 0 -6 6 -9 13 -6 6 2 12 10
12 18 0 18 44 42 67 36 9 -3 18 -1 20 3 2 5 27 4 57 -2 32 -5 57 -6 63 0 16
16 -10 62 -47 83 -43 26 -46 35 -5 14 17 -9 30 -11 30 -6 0 33 -152 55 -203
30 -19 -9 -19 -7 3 10 35 29 78 48 125 56 22 3 57 8 78 12 23 3 43 1 50 -6 17
-17 27 -13 27 9 0 25 -46 74 -61 64 -6 -3 -20 3 -32 14 -21 19 -24 20 -57 5z
m-22 -170 c-10 -2 -28 -2 -40 0 -13 2 -5 4 17 4 22 1 32 -1 23 -4z m52 -74 c0
-9 -39 -23 -46 -16 -3 3 0 14 7 26 10 15 16 17 26 9 7 -6 13 -14 13 -19z
m-147 7 c6 -16 -2 -28 -14 -20 -12 7 -11 34 0 34 5 0 11 -6 14 -14z"/>
<path d="M1350 3405 c-7 -8 -18 -15 -25 -15 -17 0 -55 -47 -55 -67 0 -11 5
-13 18 -7 20 9 172 5 187 -4 5 -4 33 -14 60 -23 l50 -17 -80 5 c-63 4 -88 2
-112 -11 -49 -25 -49 -38 -1 -17 29 12 50 15 63 10 l20 -9 -20 2 c-46 3 -135
-58 -135 -93 0 -10 3 -19 8 -20 4 0 39 -2 77 -3 66 -2 115 -17 115 -35 0 -5
18 -5 40 -1 22 4 40 5 40 3 0 -2 13 4 29 13 26 15 28 20 20 43 -7 17 -7 27 0
29 13 4 -29 62 -45 62 -22 0 -12 40 11 42 37 2 40 3 42 13 7 29 -13 43 -100
68 -51 15 -103 27 -114 27 -12 0 -25 5 -28 10 -9 15 -51 12 -65 -5z m86 -212
c23 -30 18 -44 -11 -31 -24 11 -32 28 -18 41 10 10 15 9 29 -10z m124 -8 c0
-8 -4 -15 -10 -15 -5 0 -10 7 -10 15 0 8 5 15 10 15 6 0 10 -7 10 -15z m-13
-41 c-3 -3 -12 -4 -19 -1 -8 3 -5 6 6 6 11 1 17 -2 13 -5z"/>
<path d="M987 3053 c-13 -21 -18 -93 -7 -93 6 0 9 4 6 9 -3 4 1 17 9 27 8 10
15 27 15 36 0 18 -16 33 -23 21z"/>
<path d="M1131 2904 c0 -11 3 -14 6 -6 3 7 2 16 -1 19 -3 4 -6 -2 -5 -13z"/>
<path d="M2411 2874 c0 -11 3 -14 6 -6 3 7 2 16 -1 19 -3 4 -6 -2 -5 -13z"/>
<path d="M1142 2870 c-1 -8 5 -44 13 -80 7 -36 13 -51 13 -35 0 31 -25 142
-26 115z"/>
<path d="M2465 2866 c-10 -6 -25 -16 -32 -23 -7 -6 -18 -13 -24 -15 -6 -2 -13
-26 -15 -53 -3 -43 -2 -45 4 -14 8 34 42 79 61 79 10 0 36 29 30 34 -2 2 -13
-1 -24 -8z"/>
<path d="M1113 2823 c9 -9 19 -14 23 -11 10 10 -6 28 -24 28 -15 0 -15 -1 1
-17z"/>
<path d="M1667 2793 c-4 -3 -7 -15 -7 -25 0 -13 7 -18 28 -18 41 0 59 15 43
34 -14 16 -52 22 -64 9z"/>
<path d="M1853 2793 c-27 -10 -13 -33 20 -33 38 0 48 6 40 26 -5 14 -36 17
-60 7z"/>
<path d="M1920 2740 c-23 -7 -23 -8 -3 -9 12 -1 25 4 28 9 3 6 5 10 3 9 -2 -1
-14 -5 -28 -9z"/>
<path d="M1584 2538 c-3 -4 -14 -8 -24 -8 -32 0 -32 -18 0 -35 56 -29 80 -36
74 -21 -4 11 13 15 73 21 139 12 198 7 214 -17 3 -4 29 2 58 15 48 21 51 24
36 37 -13 11 -45 14 -131 11 -63 -1 -124 -4 -134 -6 -11 -2 -52 0 -90 4 -39 4
-73 4 -76 -1z"/>
<path d="M1740 2391 c-19 -5 -25 -13 -25 -36 0 -19 5 -29 13 -27 7 1 12 -8 12
-21 0 -19 5 -23 28 -21 40 2 39 2 48 32 15 54 14 70 -9 76 -26 7 -33 6 -67 -3z"/>
<path d="M1628 2083 c6 -2 18 -2 25 0 6 3 1 5 -13 5 -14 0 -19 -2 -12 -5z"/>
<path d="M815 1826 c-117 -51 -128 -59 -129 -104 l-1 -41 23 27 c18 20 22 22
16 7 -65 -174 -80 -256 -94 -490 -13 -234 -12 -381 5 -507 9 -73 11 -118 4
-140 -13 -49 -11 -78 11 -144 12 -34 24 -107 29 -174 5 -64 17 -132 26 -153
23 -54 13 -71 -13 -21 -15 29 -23 69 -27 135 -4 55 -17 131 -33 182 -22 78
-24 96 -16 148 7 41 6 83 -2 141 -29 191 -11 670 31 842 29 116 29 120 13 110
-8 -5 -9 -2 -4 12 5 10 11 38 13 61 l6 43 -32 -11 c-22 -8 -31 -17 -31 -32 0
-12 -9 -51 -20 -85 -23 -73 -24 -86 -9 -77 7 5 8 -4 5 -27 -51 -298 -60 -639
-24 -834 12 -66 22 -141 21 -169 -1 -27 -2 -70 -3 -95 -1 -26 9 -76 24 -119
14 -41 26 -85 26 -99 0 -27 25 -133 42 -175 7 -17 16 -26 24 -23 8 3 14 1 14
-4 0 -6 7 -10 16 -10 14 0 16 11 12 78 -2 47 -11 92 -22 115 -16 31 -17 51
-12 130 6 72 3 112 -12 182 -18 83 -19 116 -11 440 11 458 36 645 103 766 45
82 46 91 6 78 -16 -6 -30 -17 -30 -25 0 -8 -5 -14 -10 -14 -23 0 11 39 42 49
18 6 44 20 58 31 31 24 28 24 -35 -4z"/>
<path d="M2412 1840 c0 -8 4 -26 8 -40 6 -20 8 -21 8 -5 0 11 -3 29 -8 40 -5
12 -8 14 -8 5z"/>
<path d="M2545 1833 c4 -10 15 -97 26 -193 10 -96 23 -206 29 -245 21 -137 23
-177 8 -186 -12 -6 -14 -76 -16 -410 -1 -361 -10 -590 -28 -745 l-7 -54 30 0
c26 0 31 5 37 33 10 45 24 418 32 817 9 469 -8 736 -57 881 -22 64 -23 79 -9
79 6 0 10 -11 10 -25 0 -14 7 -42 15 -62 60 -142 78 -563 55 -1248 -5 -159
-12 -332 -16 -382 l-6 -93 26 0 c22 0 26 5 26 27 0 15 4 88 10 162 17 243 21
331 26 701 7 416 -1 539 -46 749 -17 76 -29 144 -28 150 2 7 -24 23 -56 37
-71 29 -70 29 -61 7z"/>
<path d="M858 1817 c-9 -6 -18 -24 -22 -38 -3 -14 -17 -43 -31 -64 -61 -89
-96 -343 -100 -720 -1 -143 -6 -283 -9 -310 -5 -36 -1 -80 14 -150 16 -80 19
-119 14 -195 -3 -53 -2 -106 4 -120 13 -34 27 240 23 460 -2 173 23 685 38
780 10 60 29 137 65 275 13 50 23 91 22 92 -1 2 -9 -3 -18 -10z"/>
<path d="M2680 1779 c0 -10 14 -81 31 -157 50 -226 59 -382 48 -856 -5 -226
-16 -475 -24 -553 -19 -181 -19 -213 -1 -213 10 0 17 16 21 47 4 27 14 80 22
118 20 94 31 281 42 690 11 393 4 518 -40 715 -17 74 -33 152 -36 172 -4 29
-11 39 -34 47 -26 9 -29 8 -29 -10z"/>
<path d="M2762 1733 c3 -21 19 -99 37 -173 49 -206 56 -327 42 -740 -15 -447
-24 -585 -44 -685 -30 -148 -30 -137 1 -133 26 3 28 8 49 98 12 52 22 125 22
162 1 37 8 117 16 178 21 146 26 777 8 830 -24 67 -76 325 -80 400 -5 77 -14
100 -40 100 -12 0 -14 -9 -11 -37z"/>
<path d="M2832 1673 c4 -71 47 -301 73 -388 24 -83 27 -122 25 -310 -3 -370
-30 -768 -60 -884 -11 -43 -20 -82 -20 -85 0 -3 13 -6 29 -6 27 0 29 3 44 78
9 42 18 114 21 160 3 45 12 119 21 165 18 100 35 589 23 661 -17 96 -28 171
-43 281 -8 61 -24 153 -34 205 -11 52 -21 113 -23 135 -2 42 -11 55 -41 55
-17 0 -18 -7 -15 -67z"/>
<path d="M558 1707 c-10 -8 -28 -56 -42 -114 -23 -91 -26 -126 -31 -350 -3
-136 -9 -279 -14 -317 -13 -95 2 -226 41 -352 30 -98 31 -108 19 -155 -16 -62
-12 -85 49 -268 40 -122 51 -147 69 -149 25 -4 25 -3 7 34 -8 16 -22 63 -31
104 -10 41 -28 111 -41 155 -12 44 -26 90 -29 103 -4 12 -1 46 5 75 11 46 9
68 -14 181 -23 116 -26 151 -26 350 0 143 5 251 14 306 21 127 26 190 16 190
-16 0 -12 31 15 110 34 105 33 127 -7 97z"/>
<path d="M479 1658 c-18 -17 -28 -39 -33 -74 -3 -27 -10 -55 -15 -62 -11 -17
-1 98 11 121 8 16 7 16 -25 1 -25 -12 -33 -22 -30 -34 3 -10 0 -28 -7 -39 -6
-12 -17 -61 -25 -109 -8 -48 -33 -152 -55 -232 -41 -144 -42 -146 -37 -275 4
-83 15 -175 31 -254 14 -68 26 -145 26 -172 0 -42 6 -55 45 -104 26 -31 50
-66 55 -78 7 -18 9 -13 9 25 1 58 -8 81 -53 142 l-37 47 7 82 c4 56 1 112 -9
177 -29 176 -33 320 -9 320 4 0 8 -44 10 -98 1 -53 10 -144 18 -201 11 -72 14
-129 9 -184 l-7 -79 38 -56 c41 -63 53 -124 54 -288 0 -84 3 -97 36 -163 25
-50 41 -71 54 -71 16 0 13 12 -28 98 l-47 97 -1 130 c-1 137 -19 221 -68 307
-20 35 -20 39 -5 120 11 61 13 111 8 188 -10 150 -10 313 0 328 15 25 25 -420
11 -506 -12 -72 -11 -80 7 -117 11 -22 32 -78 46 -125 23 -75 25 -96 20 -177
-5 -72 -2 -103 12 -145 28 -87 83 -198 97 -198 11 0 4 29 -24 113 -69 198 -72
213 -58 289 11 63 10 71 -20 164 -43 133 -56 245 -42 343 18 120 27 423 13
448 -12 24 5 136 35 225 8 26 14 59 12 74 l-3 26 -26 -24z m-98 -363 c-6 -53
-16 -106 -22 -117 -20 -38 -20 -30 17 191 11 70 15 18 5 -74z"/>
<path d="M344 1610 c-12 -5 -31 -28 -42 -52 -21 -44 -21 -46 3 -156 10 -45 25
-22 25 39 0 25 9 72 20 104 23 68 23 75 -6 65z"/>
<path d="M265 1566 c-40 -23 -46 -38 -41 -107 2 -36 15 -108 27 -160 l23 -94
15 63 c14 59 13 67 -8 157 -22 90 -23 96 -6 121 20 30 17 36 -10 20z"/>
<path d="M825 1417 c-6 -7 -14 -17 -18 -24 -14 -22 -35 -616 -36 -1006 l-2
-387 31 0 30 0 2 208 c2 114 3 326 3 472 0 237 19 673 30 725 3 11 2 14 -1 8
-8 -17 -22 -16 -26 1 -2 10 -6 11 -13 3z"/>
<path d="M22 1304 c-14 -10 -22 -25 -22 -45 l0 -30 34 27 c23 18 32 33 29 45
-6 23 -12 23 -41 3z"/>
<path d="M26 1221 c-22 -23 -27 -36 -24 -70 l3 -42 38 49 c57 76 44 127 -17
63z"/>
<path d="M250 252 c0 -10 -6 -26 -14 -37 -17 -25 -43 -106 -55 -167 l-8 -48
28 0 c25 0 30 5 39 40 14 54 49 134 55 128 3 -3 -6 -35 -20 -72 -33 -87 -32
-96 6 -96 25 0 32 5 41 31 6 16 12 28 14 26 3 -2 0 -16 -5 -31 -10 -25 -10
-26 29 -26 47 0 53 19 15 44 -13 9 -32 31 -41 49 -14 28 -11 26 30 -17 25 -27
46 -55 46 -63 0 -7 7 -13 14 -13 13 0 13 4 0 35 -7 19 -14 45 -14 58 0 16 -12
34 -32 50 -18 13 -51 47 -73 75 -43 55 -55 62 -55 34z"/>
</g>
</svg>
